<svg xmlns="http://www.w3.org/2000/svg" viewBox="0 0 128 128">
  <defs>
    <linearGradient id="bg" x1="0" y1="0" x2="1" y2="1">
      <stop offset="0%" stop-color="#e5a50a"/>
      <stop offset="100%" stop-color="#b58508"/>
    </linearGradient>
  </defs>
  <rect width="128" height="128" rx="20" fill="url(#bg)"/>
  <!-- Book -->
  <path d="M24,24 L60,20 L60,96 L24,100 Z" fill="white" opacity="0.9"/>
  <path d="M60,20 L96,24 L96,100 L60,96 Z" fill="white" opacity="0.82"/>
  <line x1="60" y1="20" x2="60" y2="96" stroke="#b58508" stroke-width="2" opacity="0.5"/>
  <!-- Text lines left page -->
  <rect x="32" y="36" width="20" height="3" rx="1" fill="#b58508" opacity="0.5"/>
  <rect x="32" y="44" width="16" height="3" rx="1" fill="#b58508" opacity="0.35"/>
  <rect x="32" y="52" width="22" height="3" rx="1" fill="#b58508" opacity="0.5"/>
  <rect x="32" y="60" width="14" height="3" rx="1" fill="#b58508" opacity="0.35"/>
  <rect x="32" y="68" width="18" height="3" rx="1" fill="#b58508" opacity="0.5"/>
  <!-- Text lines right page -->
  <rect x="66" y="36" width="22" height="3" rx="1" fill="#b58508" opacity="0.5"/>
  <rect x="66" y="44" width="18" height="3" rx="1" fill="#b58508" opacity="0.35"/>
  <rect x="66" y="52" width="20" height="3" rx="1" fill="#b58508" opacity="0.5"/>
  <rect x="66" y="60" width="16" height="3" rx="1" fill="#b58508" opacity="0.35"/>
  <!-- ABC badge -->
  <circle cx="96" cy="28" r="16" fill="#c01c28" opacity="0.9"/>
  <text x="96" y="33" font-family="sans-serif" font-size="13" fill="white" text-anchor="middle" font-weight="bold">TBX</text>
  <!-- Arrow -->
  <text x="64" y="116" font-family="sans-serif" font-size="14" fill="white" text-anchor="middle" opacity="0.7">EN → SV</text>
</svg>
